<?xml version="1.0" encoding="UTF-8" standalone="no"?>
<!-- Created with Inkscape (http://www.inkscape.org/) -->

<svg
   version="1.1"
   id="svg1"
   width="32"
   height="32"
   viewBox="0 0 32 32"
   sodipodi:docname="profile.png"
   xmlns:inkscape="http://www.inkscape.org/namespaces/inkscape"
   xmlns:sodipodi="http://sodipodi.sourceforge.net/DTD/sodipodi-0.dtd"
   xmlns="http://www.w3.org/2000/svg"
   xmlns:svg="http://www.w3.org/2000/svg">
  <defs
     id="defs1" />
  <sodipodi:namedview
     id="namedview1"
     pagecolor="#ffffff"
     bordercolor="#000000"
     borderopacity="0.25"
     inkscape:showpageshadow="2"
     inkscape:pageopacity="0.0"
     inkscape:pagecheckerboard="0"
     inkscape:deskcolor="#d1d1d1">
    <inkscape:page
       x="0"
       y="0"
       width="32"
       height="32"
       id="page2"
       margin="0"
       bleed="0" />
  </sodipodi:namedview>
  <g
     inkscape:groupmode="layer"
     inkscape:label="Image"
     id="g1">
    <path
       style="fill:#ffffff;fill-opacity:1;stroke-width:1.09994"
       d="M 14.552076,31.386334 C 13.56657,31.29351 12.291008,31.015437 11.217874,30.659479 10.226108,30.33051 8.4377705,29.480207 7.7461817,29.008791 7.4144094,28.78264 7.365462,28.719462 7.3467377,28.493217 c -0.011736,-0.141812 0.027543,-0.51868 0.08728,-0.837484 0.5042267,-2.690881 2.2981336,-5.055804 4.7740793,-6.293704 0.560992,-0.28048 1.679221,-0.645673 2.343983,-0.765501 0.753811,-0.13588 2.441377,-0.118653 3.162333,0.03229 2.785373,0.583132 5.060322,2.339357 6.258212,4.83124 0.461353,0.95972 0.822666,2.281237 0.822666,3.008932 v 0.287082 l -0.635904,0.385693 c -2.97781,1.806113 -6.220103,2.563616 -9.607307,2.244575 z M 4.8646837,26.613233 C 2.5892419,24.123537 1.2624893,21.327879 0.78968015,18.026621 0.65827555,17.109117 0.67785012,14.834457 0.82547338,13.867463 1.8612726,7.0825366 7.070826,1.8729506 13.864611,0.82824417 c 1.088923,-0.16744763 3.308553,-0.16764891 4.39977,-3.9894e-4 4.433208,0.67947427 8.243706,3.12156717 10.697893,6.85612837 1.186237,1.8051067 1.987762,3.9238744 2.340129,6.1859404 0.169026,1.08509 0.169754,3.305323 0.0014,4.385056 -0.40124,2.573912 -1.415825,5.015888 -2.907387,6.997712 -0.461132,0.6127 -1.404522,1.690118 -1.510216,1.724771 -0.0418,0.0137 -0.113457,-0.150104 -0.163081,-0.372782 -0.134625,-0.604163 -0.464234,-1.49683 -0.806645,-2.184636 -1.063379,-2.13602 -3.009656,-4.069794 -5.087132,-5.05445 -0.333145,-0.157901 -0.611728,-0.292597 -0.619072,-0.299324 -0.0074,-0.0067 0.255612,-0.292454 0.584345,-0.634947 1.784737,-1.859436 2.330794,-4.430519 1.455012,-6.85086 C 21.624425,9.852542 20.079417,8.3075338 18.351506,7.6823025 15.859547,6.7806063 13.125941,7.4138019 11.311438,9.31302 c -1.275654,1.335211 -1.9186162,3.051069 -1.8225538,4.863802 0.089172,1.682733 0.6763908,3.03649 1.8454618,4.254492 0.328734,0.342493 0.59169,0.627747 0.584346,0.633899 -0.0074,0.0061 -0.338179,0.17332 -0.73519,0.371486 -0.397011,0.198165 -1.000261,0.548505 -1.3405552,0.778532 -0.823419,0.556602 -2.2763428,2.011372 -2.8398695,2.843476 -0.7250678,1.070638 -1.3593363,2.478359 -1.5968106,3.544026 -0.048452,0.21741 -0.1109962,0.395292 -0.1389964,0.395292 -0.028004,0 -0.2091639,-0.173157 -0.4025866,-0.384792 z M 15.308285,18.202529 c -0.889287,-0.166485 -1.675767,-0.585728 -2.334447,-1.244408 -0.51934,-0.51934 -0.831415,-1.014751 -1.087953,-1.7271 -0.159709,-0.443476 -0.181587,-0.607764 -0.181587,-1.363558 0,-0.755794 0.02188,-0.920082 0.181587,-1.363557 0.256538,-0.71235 0.568613,-1.20776 1.087955,-1.7271 0.519339,-0.519341 1.014749,-0.8314157 1.727099,-1.0879541 0.443476,-0.1597083 0.607763,-0.1815873 1.363557,-0.1815873 0.755794,0 0.920082,0.021878 1.363558,0.1815873 0.712349,0.2565384 1.20776,0.5686131 1.727101,1.0879541 2.692471,2.692472 0.910779,7.298267 -2.88442,7.456424 -0.359199,0.01497 -0.792301,0.0011 -0.96245,-0.0307 z"
       id="path1" />
  </g>
</svg>
